<svg xmlns="http://www.w3.org/2000/svg" width="512" height="512" viewBox="0 0 512 512" fill="none">
  <defs>
    <linearGradient id="bg" x1="64" y1="56" x2="448" y2="456" gradientUnits="userSpaceOnUse">
      <stop stop-color="#2563EB"/>
      <stop offset="1" stop-color="#0EA5E9"/>
    </linearGradient>
  </defs>
  <rect x="24" y="24" width="464" height="464" rx="110" fill="url(#bg)"/>
  <rect x="56" y="56" width="400" height="400" rx="84" stroke="rgba(255,255,255,0.28)" stroke-width="6"/>
  <path d="M307.7 161c-18.7-10.8-39.1-16.2-61.3-16.2-32 0-58.2 9.9-78.6 29.8-20.3 19.8-30.5 45.8-30.5 77.8 0 32.6 10.2 58.9 30.7 78.9 20.5 20 47 30 79.6 30 20 0 38.7-4.5 56-13.6v-46.9c-14.4 10.5-31.1 15.8-50.2 15.8-19.5 0-35.5-6.2-47.8-18.7-12.4-12.4-18.6-28.4-18.6-47.8 0-19.8 6-35.8 18-48 12-12.1 28-18.2 47.9-18.2 19.4 0 37 5.5 52.8 16.4V161Z" fill="white"/>
</svg>